<svg width="160" height="160" viewBox="0 0 160 160" fill="none" xmlns="http://www.w3.org/2000/svg">
<rect width="160" height="160" rx="12" fill="url(#paint0_linear_17_5)"/>
<path d="M104.368 115.44C102.192 115.44 100.272 115.088 98.608 114.384C96.944 113.744 95.376 112.656 93.904 111.12C92.432 109.52 90.864 107.376 89.2 104.688C88.304 103.024 87.344 101.328 86.32 99.6C85.36 97.872 84.336 96.016 83.248 94.032C82.224 92.048 81.104 89.968 79.888 87.792C78.736 85.616 77.456 83.312 76.048 80.88H73.264V111.984L78.544 113.04V114H49.072V113.04L54.256 111.984V48.048L49.072 46.992V46.032H73.264V79.536C73.904 79.536 74.512 79.504 75.088 79.44C75.728 79.376 76.336 79.28 76.912 79.152C78.448 78.832 79.888 78.128 81.232 77.04C82.64 75.952 83.952 74.64 85.168 73.104C86.448 71.504 87.6 69.808 88.624 68.016C89.456 66.48 90.16 64.912 90.736 63.312C91.376 61.712 91.856 60.144 92.176 58.608C92.496 57.072 92.656 55.664 92.656 54.384C92.656 52.208 92.048 50.448 90.832 49.104C89.616 47.696 87.696 46.992 85.072 46.992V46.032H115.12V46.992L110.032 48.048C110.032 50.544 109.584 53.04 108.688 55.536C107.792 57.968 106.576 60.304 105.04 62.544C103.568 64.784 101.872 66.832 99.952 68.688C97.584 70.992 95.056 73.008 92.368 74.736C89.68 76.4 87.12 77.712 84.688 78.672C82.32 79.568 80.368 80.08 78.832 80.208V80.688C82.288 80.752 85.328 81.072 87.952 81.648C90.576 82.16 92.848 83.024 94.768 84.24C96.752 85.392 98.48 86.96 99.952 88.944C101.488 90.864 102.864 93.232 104.08 96.048C105.424 99.184 106.64 101.776 107.728 103.824C108.816 105.808 109.872 107.376 110.896 108.528C111.92 109.616 112.976 110.48 114.064 111.12C114.64 111.44 115.248 111.536 115.888 111.408V112.368C114.608 113.328 113.296 114 111.952 114.384C110.608 114.832 109.296 115.12 108.016 115.248C106.736 115.376 105.52 115.44 104.368 115.44Z" fill="white"/>
<defs>
<linearGradient id="paint0_linear_17_5" x1="80" y1="0" x2="80" y2="160" gradientUnits="userSpaceOnUse">
<stop stop-color="#0F766E"/>
<stop offset="0.5" stop-color="#115E59"/>
<stop offset="1" stop-color="#134E4A"/>
</linearGradient>
</defs>
</svg>
