<svg width="262" height="73" viewBox="0 0 262 73" fill="none" xmlns="http://www.w3.org/2000/svg">
<path d="M54.048 72.96C52.384 72.96 50.816 72.512 49.344 71.616C47.936 70.784 46.496 69.344 45.024 67.296C43.552 65.248 41.888 62.464 40.032 58.944C38.88 56.704 37.664 54.624 36.384 52.704C35.168 50.784 33.824 48.992 32.352 47.328C30.944 45.664 29.344 44.128 27.552 42.72C25.824 41.248 23.904 39.84 21.792 38.496H16.896V69.312L22.752 70.56V71.52H0V70.56L5.856 69.312V5.76L0 4.512V3.55201H16.896V37.152C17.92 37.152 18.912 37.12 19.872 37.056C20.832 36.992 21.792 36.928 22.752 36.864C24.736 36.672 26.624 36.032 28.416 34.944C30.208 33.856 31.872 32.48 33.408 30.816C35.008 29.088 36.448 27.264 37.728 25.344C38.816 23.552 39.744 21.76 40.512 19.968C41.344 18.112 41.952 16.352 42.336 14.688C42.784 13.024 43.008 11.552 43.008 10.272C43.008 8.544 42.432 7.168 41.28 6.144C40.128 5.056 38.368 4.512 36 4.512V3.55201H59.04V4.512L53.376 5.76C53.376 7.872 52.992 10.112 52.224 12.48C51.456 14.784 50.4 17.12 49.056 19.488C47.776 21.856 46.208 24.064 44.352 26.112C42.496 28.224 40.448 30.08 38.208 31.68C36.032 33.28 33.888 34.592 31.776 35.616C29.728 36.64 27.808 37.28 26.016 37.536V38.016C28.96 38.144 31.552 38.528 33.792 39.168C36.096 39.808 38.144 40.768 39.936 42.048C41.728 43.264 43.328 44.864 44.736 46.848C46.144 48.768 47.488 51.104 48.768 53.856C50.432 57.568 51.872 60.544 53.088 62.784C54.304 64.96 55.456 66.624 56.544 67.776C57.632 68.864 58.688 69.568 59.712 69.888C60.352 70.08 61.024 70.08 61.728 69.888V70.848C60.896 71.488 60.032 71.936 59.136 72.192C58.24 72.512 57.344 72.704 56.448 72.768C55.616 72.896 54.816 72.96 54.048 72.96Z" fill="black"/>
<path d="M88.221 22.08C92.189 22.08 95.709 22.688 98.781 23.904C101.917 25.12 104.541 26.88 106.653 29.184C108.765 31.424 110.365 34.144 111.453 37.344C112.541 40.48 113.085 44 113.085 47.904C113.085 51.552 112.541 54.912 111.453 57.984C110.365 60.992 108.765 63.648 106.653 65.952C104.541 68.192 101.949 69.92 98.877 71.136C95.805 72.352 92.253 72.96 88.221 72.96C84.125 72.96 80.509 72.352 77.373 71.136C74.301 69.92 71.709 68.192 69.597 65.952C67.485 63.648 65.885 60.992 64.797 57.984C63.773 54.912 63.261 51.552 63.261 47.904C63.261 44 63.837 40.48 64.989 37.344C66.141 34.144 67.773 31.424 69.885 29.184C72.061 26.88 74.685 25.12 77.757 23.904C80.829 22.688 84.317 22.08 88.221 22.08ZM88.221 23.328C85.085 23.328 82.461 24.384 80.349 26.496C78.301 28.608 76.733 31.52 75.645 35.232C74.621 38.944 74.109 43.168 74.109 47.904C74.109 51.296 74.365 54.432 74.877 57.312C75.453 60.192 76.317 62.72 77.469 64.896C78.685 67.072 80.189 68.768 81.981 69.984C83.773 71.136 85.853 71.712 88.221 71.712C90.525 71.712 92.541 71.136 94.269 69.984C96.061 68.768 97.565 67.104 98.781 64.992C99.997 62.816 100.893 60.288 101.469 57.408C102.045 54.464 102.333 51.296 102.333 47.904C102.333 44.32 102.045 41.056 101.469 38.112C100.893 35.104 100.029 32.512 98.877 30.336C97.725 28.096 96.253 26.368 94.461 25.152C92.669 23.936 90.589 23.328 88.221 23.328ZM72.189 11.136V7.008H104.253V11.136H72.189Z" fill="black"/>
<path d="M171.007 0V68.16H176.959V69.12L160.447 72.96V57.888L159.679 57.12C158.975 58.976 158.047 60.864 156.895 62.784C155.807 64.64 154.495 66.336 152.959 67.872C151.423 69.408 149.663 70.624 147.679 71.52C145.759 72.48 143.647 72.96 141.343 72.96C137.503 72.96 134.111 71.904 131.167 69.792C128.223 67.68 125.919 64.768 124.255 61.056C122.655 57.344 121.855 53.12 121.855 48.384C121.855 42.688 122.815 37.888 124.735 33.984C126.655 30.08 129.215 27.136 132.415 25.152C135.679 23.104 139.295 22.08 143.263 22.08C146.207 22.08 148.831 22.592 151.135 23.616C153.503 24.576 155.487 25.824 157.087 27.36C158.687 28.896 159.807 30.528 160.447 32.256V4.89601H154.591V3.84L171.007 0ZM147.391 24.864C144.447 24.864 141.855 25.856 139.615 27.84C137.439 29.76 135.743 32.384 134.527 35.712C133.311 39.04 132.703 42.848 132.703 47.136C132.703 51.808 133.215 55.776 134.239 59.04C135.263 62.304 136.671 64.8 138.463 66.528C140.319 68.192 142.527 69.024 145.087 69.024C147.007 69.024 148.735 68.544 150.271 67.584C151.871 66.624 153.311 65.312 154.591 63.648C155.871 61.984 156.991 60.064 157.951 57.888C158.911 55.712 159.743 53.376 160.447 50.88V40.512C160.447 38.464 160.127 36.512 159.487 34.656C158.847 32.736 157.951 31.072 156.799 29.664C155.647 28.192 154.271 27.04 152.671 26.208C151.071 25.312 149.311 24.864 147.391 24.864Z" fill="black"/>
<path d="M209.346 22.08C213.314 22.08 216.834 22.688 219.906 23.904C223.042 25.12 225.666 26.88 227.778 29.184C229.89 31.424 231.49 34.144 232.578 37.344C233.666 40.48 234.21 44 234.21 47.904C234.21 51.552 233.666 54.912 232.578 57.984C231.49 60.992 229.89 63.648 227.778 65.952C225.666 68.192 223.074 69.92 220.002 71.136C216.93 72.352 213.378 72.96 209.346 72.96C205.25 72.96 201.634 72.352 198.498 71.136C195.426 69.92 192.834 68.192 190.722 65.952C188.61 63.648 187.01 60.992 185.922 57.984C184.898 54.912 184.386 51.552 184.386 47.904C184.386 44 184.962 40.48 186.114 37.344C187.266 34.144 188.898 31.424 191.01 29.184C193.186 26.88 195.81 25.12 198.882 23.904C201.954 22.688 205.442 22.08 209.346 22.08ZM209.346 23.328C206.21 23.328 203.586 24.384 201.474 26.496C199.426 28.608 197.858 31.52 196.77 35.232C195.746 38.944 195.234 43.168 195.234 47.904C195.234 51.296 195.49 54.432 196.002 57.312C196.578 60.192 197.442 62.72 198.594 64.896C199.81 67.072 201.314 68.768 203.106 69.984C204.898 71.136 206.978 71.712 209.346 71.712C211.65 71.712 213.666 71.136 215.394 69.984C217.186 68.768 218.69 67.104 219.906 64.992C221.122 62.816 222.018 60.288 222.594 57.408C223.17 54.464 223.458 51.296 223.458 47.904C223.458 44.32 223.17 41.056 222.594 38.112C222.018 35.104 221.154 32.512 220.002 30.336C218.85 28.096 217.378 26.368 215.586 25.152C213.794 23.936 211.714 23.328 209.346 23.328ZM193.314 11.136V7.008H225.378V11.136H193.314Z" fill="black"/>
<path d="M255.036 24.16H260.94V25.024H255.036V24.16ZM258.552 27.736H259.464V33.328C259.464 33.608 259.424 33.82 259.344 33.964C259.264 34.116 259.124 34.232 258.924 34.312C258.716 34.376 258.432 34.412 258.072 34.42C257.72 34.436 257.248 34.444 256.656 34.444C256.64 34.324 256.604 34.18 256.548 34.012C256.492 33.844 256.428 33.692 256.356 33.556C256.644 33.564 256.916 33.572 257.172 33.58C257.428 33.588 257.652 33.588 257.844 33.58C258.036 33.58 258.168 33.58 258.24 33.58C258.352 33.572 258.432 33.552 258.48 33.52C258.528 33.48 258.552 33.412 258.552 33.316V27.736ZM254.508 27.472H261.276V28.336H254.508V27.472ZM252.12 28.408L252.912 27.616L253.008 27.664V34.516H252.12V28.408ZM253.5 26.008L254.352 26.32C254.048 26.824 253.696 27.328 253.296 27.832C252.896 28.336 252.476 28.808 252.036 29.248C251.604 29.68 251.176 30.068 250.752 30.412C250.704 30.348 250.64 30.268 250.56 30.172C250.488 30.076 250.412 29.98 250.332 29.884C250.252 29.788 250.18 29.712 250.116 29.656C250.532 29.36 250.944 29.016 251.352 28.624C251.768 28.232 252.16 27.812 252.528 27.364C252.904 26.916 253.228 26.464 253.5 26.008ZM253.02 23.428L253.884 23.788C253.62 24.132 253.312 24.488 252.96 24.856C252.616 25.216 252.252 25.564 251.868 25.9C251.492 26.228 251.124 26.52 250.764 26.776C250.724 26.712 250.672 26.636 250.608 26.548C250.552 26.452 250.488 26.36 250.416 26.272C250.352 26.176 250.292 26.104 250.236 26.056C250.572 25.824 250.912 25.56 251.256 25.264C251.608 24.968 251.936 24.66 252.24 24.34C252.552 24.02 252.812 23.716 253.02 23.428Z" fill="black"/>
<path d="M250.644 47.276H256.116V47.972H250.644V47.276ZM250.32 41.492H256.32V42.2H250.32V41.492ZM252.924 40.412H253.752V49.232H252.924V40.412ZM250.32 49.256C250.808 49.208 251.368 49.156 252 49.1C252.64 49.044 253.316 48.98 254.028 48.908C254.748 48.836 255.46 48.76 256.164 48.68L256.176 49.388C255.496 49.468 254.812 49.548 254.124 49.628C253.436 49.716 252.776 49.792 252.144 49.856C251.52 49.928 250.952 49.992 250.44 50.048L250.32 49.256ZM251.424 45.044V45.92H255.324V45.044H251.424ZM251.424 43.58V44.444H255.324V43.58H251.424ZM250.68 42.956H256.092V46.544H250.68V42.956ZM255.66 39.56L256.104 40.256C255.632 40.352 255.088 40.44 254.472 40.52C253.856 40.6 253.216 40.668 252.552 40.724C251.896 40.772 251.268 40.804 250.668 40.82C250.652 40.724 250.62 40.612 250.572 40.484C250.532 40.356 250.492 40.244 250.452 40.148C250.9 40.124 251.36 40.096 251.832 40.064C252.312 40.024 252.784 39.98 253.248 39.932C253.72 39.884 254.16 39.828 254.568 39.764C254.984 39.7 255.348 39.632 255.66 39.56ZM256.224 42.248H260.556V43.076H256.224V42.248ZM260.208 42.248H261.072C261.072 42.248 261.072 42.28 261.072 42.344C261.072 42.4 261.072 42.464 261.072 42.536C261.072 42.6 261.072 42.652 261.072 42.692C261.04 43.964 261.004 45.036 260.964 45.908C260.932 46.772 260.892 47.48 260.844 48.032C260.796 48.584 260.736 49.012 260.664 49.316C260.6 49.612 260.516 49.824 260.412 49.952C260.308 50.112 260.192 50.224 260.064 50.288C259.936 50.352 259.784 50.392 259.608 50.408C259.44 50.432 259.224 50.44 258.96 50.432C258.696 50.432 258.42 50.428 258.132 50.42C258.124 50.292 258.096 50.144 258.048 49.976C258 49.816 257.94 49.676 257.868 49.556C258.164 49.58 258.436 49.592 258.684 49.592C258.932 49.6 259.112 49.604 259.224 49.604C259.32 49.604 259.4 49.592 259.464 49.568C259.528 49.544 259.588 49.496 259.644 49.424C259.724 49.328 259.792 49.14 259.848 48.86C259.904 48.572 259.952 48.16 259.992 47.624C260.032 47.088 260.068 46.396 260.1 45.548C260.14 44.7 260.176 43.668 260.208 42.452V42.248ZM257.676 39.596H258.552C258.544 40.548 258.528 41.468 258.504 42.356C258.488 43.244 258.436 44.088 258.348 44.888C258.26 45.688 258.112 46.436 257.904 47.132C257.704 47.828 257.42 48.464 257.052 49.04C256.692 49.608 256.224 50.108 255.648 50.54C255.608 50.468 255.548 50.392 255.468 50.312C255.388 50.232 255.304 50.152 255.216 50.072C255.136 50 255.06 49.94 254.988 49.892C255.532 49.5 255.976 49.04 256.32 48.512C256.664 47.976 256.928 47.384 257.112 46.736C257.304 46.08 257.436 45.376 257.508 44.624C257.588 43.864 257.636 43.064 257.652 42.224C257.668 41.376 257.676 40.5 257.676 39.596Z" fill="black"/>
</svg>
